<svg width="38" height="37" viewBox="0 0 38 37" fill="none" xmlns="http://www.w3.org/2000/svg">
<ellipse cx="19" cy="18.5" rx="19" ry="18.5" fill="#1DC6D1"/>
<path d="M18.04 13.576V22H15.988V18.532H12.796V22H10.744V13.576H12.796V16.876H15.988V13.576H18.04ZM24.8013 13.576V19.312C24.8013 20.2 24.5493 20.884 24.0453 21.364C23.5493 21.844 22.8773 22.084 22.0293 22.084C21.1413 22.084 20.4293 21.832 19.8933 21.328C19.3573 20.824 19.0893 20.108 19.0893 19.18H21.1293C21.1293 19.532 21.2013 19.8 21.3453 19.984C21.4893 20.16 21.6973 20.248 21.9693 20.248C22.2173 20.248 22.4093 20.168 22.5453 20.008C22.6813 19.848 22.7493 19.616 22.7493 19.312V13.576H24.8013Z" fill="white"/>
</svg>
