<svg width="42" height="32" viewBox="0 0 42 32" fill="none" xmlns="http://www.w3.org/2000/svg">
    <path
        d="M39.6405 0H1.36104C0.610231 0 0 0.610764 0 1.36157V4.10069C0 4.22689 0.136849 4.37173 0.248672 4.4303L20.3693 15.923C20.4214 15.9533 20.48 15.9672 20.5386 15.9672C20.5982 15.9672 20.6584 15.9517 20.7111 15.9203L40.2236 4.44148C40.3333 4.38025 40.624 4.21837 40.7332 4.14382C40.8653 4.05383 41.0016 3.97236 41.0016 3.81102V1.36104C41.0016 0.610765 40.3913 0 39.6405 0Z"
        fill="#067F98" />
    <path
        d="M40.8317 8.23069C40.7252 8.16892 40.5953 8.17158 40.4883 8.23282L29.4461 14.7297C29.3577 14.7808 29.2964 14.8713 29.2815 14.9736C29.2682 15.0753 29.3002 15.1791 29.3689 15.2542L40.4127 27.159C40.4782 27.2299 40.5676 27.2677 40.6613 27.2677C40.7034 27.2677 40.746 27.2597 40.7859 27.2448C40.9164 27.1931 41.0016 27.068 41.0016 26.9274V8.52622C41.0016 8.40375 40.9372 8.29139 40.8317 8.23069Z"
        fill="#067F98" />
    <path
        d="M26.2639 16.9113C26.1552 16.7936 25.9806 16.7675 25.8427 16.8485L21.4166 19.4529C20.8969 19.7585 20.2313 19.7612 19.7084 19.4641L15.8132 17.2388C15.6844 17.1658 15.522 17.1834 15.4133 17.2846L0.621896 31.0047C0.543087 31.0781 0.503683 31.1841 0.515398 31.2911C0.527113 31.3982 0.589414 31.494 0.682599 31.5478C0.912634 31.6831 1.13468 31.7475 1.36046 31.7475H39.2486C39.3844 31.7475 39.5068 31.6671 39.5601 31.5425C39.6144 31.4189 39.5899 31.2746 39.4972 31.1756L26.2639 16.9113Z"
        fill="#067F98" />
    <path
        d="M12.1588 15.6615C12.2387 15.5886 12.2786 15.481 12.2669 15.374C12.2552 15.2664 12.1913 15.1711 12.0976 15.1168L0.507461 8.49692C0.404158 8.43728 0.273699 8.43835 0.168266 8.49905C0.0638986 8.55976 0 8.67211 0 8.79298V26.1627C0 26.2975 0.0798732 26.4199 0.20341 26.4737C0.247074 26.4934 0.293401 26.503 0.34026 26.503C0.42386 26.503 0.507461 26.4716 0.57136 26.4119L12.1588 15.6615Z"
        fill="#067F98" />
</svg>