<svg width="25" height="20" viewBox="0 0 25 20" fill="none" xmlns="http://www.w3.org/2000/svg">
<path d="M24.611 2.36768C23.7056 2.76911 22.7327 3.04046 21.7112 3.16224C22.7535 2.53739 23.5544 1.54788 23.9309 0.369471C22.9554 0.947967 21.8745 1.36858 20.7249 1.59422C19.8041 0.613654 18.4918 0 17.0394 0C14.2511 0 11.9902 2.26029 11.9902 5.04922C11.9902 5.44458 12.035 5.83035 12.1213 6.20014C7.92476 5.98952 4.20449 3.97916 1.71408 0.923997C1.2794 1.66997 1.03043 2.53771 1.03043 3.46267C1.03043 5.21446 1.92182 6.75946 3.27666 7.66524C2.44918 7.63871 1.67061 7.41147 0.989836 7.03369C0.989197 7.05478 0.989197 7.07556 0.989197 7.09729C0.989197 9.54296 2.72948 11.5837 5.03899 12.0481C4.61551 12.1628 4.16965 12.2248 3.70909 12.2248C3.38341 12.2248 3.06731 12.1935 2.75889 12.1344C3.4013 14.1399 5.26592 15.6002 7.47539 15.6411C5.74725 16.995 3.57038 17.8027 1.20462 17.8027C0.797111 17.8027 0.395359 17.779 0 17.732C2.2344 19.1645 4.88846 20 7.73971 20C17.027 20 22.1056 12.3066 22.1056 5.63507C22.1056 5.41645 22.1005 5.19816 22.0909 4.98114C23.0782 4.26969 23.9344 3.38021 24.611 2.36768Z" fill="#1DC6D1"/>
</svg>
